<svg xmlns="http://www.w3.org/2000/svg" xmlns:xlink="http://www.w3.org/1999/xlink" xmlns:bx="https://boxy-svg.com"><symbol id="arrow_left" viewBox="0 0 19 14"><path d="M7.028 0L0 6.97.03 7 0 7.03 7.028 14l2.115-2.097-3.39-3.36H19V5.426H5.784l3.358-3.33L7.027 0z"/></symbol><symbol id="rouble" viewBox="0 0 10 10"><path d="M1.86,0V4.81H.72V6.22H1.86V10H3.41V6.22H5.25c2.23,0,4-.69,4-3.11S7.49,0,5.25,0ZM7.69,3.11c0,1.37-1.07,1.7-2.38,1.7H3.41V1.41H5.32c1.3,0,2.38.32,2.38,1.69Z"/><path d="M.72,7.14H7.13V8.21H.72Z"/></symbol><symbol id="infinity" viewBox="0 0 10 10"><path fill="none" stroke-width="1" stroke-miterlimit="10" d="M5 4.984L3.115 6.29c-1.04.717-2.47-.066-2.47-1.306s1.43-2.023 2.47-1.305L5 4.983zM5 4.984L6.885 6.29c1.04.717 2.47-.066 2.47-1.306S7.924 2.96 6.884 3.68L5 4.983z"/></symbol><symbol id="sandglass" viewBox="0 0 10 10"><path fill="none" stroke-miterlimit="10" d="M5 5l3.015 4.314h-6.03zm0 0L8.015.685h-6.03z"/><path fill="none" d="M4.668 3.564h.662v.43h-.662z"/><path d="M3.376 8.107h3.248v.85H3.376z"/></symbol><symbol id="facebook" viewBox="0 0 32 32"><path d="M10 13h3v-2.8c0-1.1.3-2.7 1.1-3.8.8-1.1 1.8-1.8 3.8-1.8 3.2 0 4.4.5 4.4.5l-.7 3.8s-1.4-.3-2.4-.3S17 9 17 10v3h4.6l-.3 4H17v12h-4V17h-3v-4z"/></symbol><symbol id="twitter" viewBox="0 0 32 32"><path d="M29 9.3c-.9.4-1.8.7-2.8.8 1-.6 1.8-1.6 2.2-2.7-1 .6-2 1-3.1 1.2-1-1-2.3-1.6-3.7-1.6-2.7 0-4.9 2.2-4.9 4.9 0 .4 0 .8.1 1.1-4.1-.2-7.7-2.2-10.1-5.1-.5.7-.7 1.6-.7 2.5 0 1.7.9 3.2 2.2 4.1-.8 0-1.6-.2-2.2-.6v.1c0 2.4 1.7 4.4 4 4.8-.4.1-.8.2-1.3.2-.3 0-.6 0-.9-.1.6 2 2.4 3.4 4.6 3.4-1.7 1.3-3.8 2.1-6.1 2.1-.4 0-.8 0-1.2-.1 2.2 1.4 4.8 2.2 7.5 2.2 9.1 0 14-7.5 14-14v-.6c.9-.7 1.7-1.6 2.4-2.6"/></symbol><symbol id="vkontakte" viewBox="0 0 32 32"><path d="M15.83 25.176h1.63s.45-.09.723-.362c.27-.27.18-.724.18-.724s0-2.17.996-2.533c.994-.362 2.26 2.08 3.708 3.076.995.724 1.81.543 1.81.543l3.618-.09s1.9-.09.995-1.628c-.09-.09-.542-1.086-2.713-3.166-2.262-2.17-1.99-1.81.814-5.428 1.72-2.262 2.353-3.62 2.172-4.16-.18-.544-1.447-.453-1.447-.453h-4.16s-.272 0-.544.09c-.18.09-.36.453-.36.453s-.634 1.72-1.54 3.257c-1.808 3.076-2.532 3.257-2.894 3.076-.724-.452-.543-1.81-.543-2.804 0-2.985.452-4.252-.905-4.614-.452-.09-.814-.18-1.9-.18-1.447 0-2.714 0-3.438.36-.452.272-.814.725-.633.815.27 0 .905.18 1.176.633.452.543.452 1.9.452 1.9s.27 3.528-.543 3.98c-.543.27-1.357-.27-2.985-3.166-.814-1.447-1.447-3.076-1.447-3.076s.09-.27-.18-.452-.634-.27-.634-.27l-3.89.09s-.543 0-.814.27c-.18.27 0 .724 0 .724S5.608 18.483 9.045 22.1c3.166 3.258 6.785 3.077 6.785 3.077z"/></symbol><symbol id="instagram" viewBox="0 0 32 32"><path d="M23.4 4H8.6C6.1 4 4 6.1 4 8.6v14.7C4 25.9 6.1 28 8.6 28h14.7c2.6 0 4.6-2.1 4.6-4.6V8.6c.1-2.5-2-4.6-4.5-4.6zm1.3 2.8h.5v4h-4.1V6.7l3.6.1zm-12.1 6.7c.8-1.1 2-1.8 3.4-1.8s2.7.7 3.4 1.8c.5.7.8 1.5.8 2.5 0 2.3-1.9 4.2-4.2 4.2s-4.2-1.9-4.2-4.2c0-.9.3-1.8.8-2.5zm13.1 9.9c0 1.3-1 2.3-2.3 2.3H8.6c-1.3 0-2.3-1-2.3-2.3v-9.8h3.6c-.3.8-.5 1.6-.5 2.5 0 3.6 2.9 6.6 6.6 6.6 3.6 0 6.6-2.9 6.6-6.6 0-.9-.2-1.7-.5-2.5h3.6v9.8z"/></symbol><symbol id="youtube" viewBox="0 0 32 32"><path d="M28.54,6.92a3.8,3.8,0,0,0-2.14-1c-1.76-.2-3.54-.3-5.32-.35s-3.55,0-5.33,0-3.55,0-5.33,0S6.87,5.76,5.11,6A3.79,3.79,0,0,0,3,6.92,4,4,0,0,0,1.78,9a20.08,20.08,0,0,0-.44,3.38c-.06,1.15-.07,2.29-.07,3.39s0,2.24.06,3.39a19.91,19.91,0,0,0,.44,3.38A4,4,0,0,0,3,24.57a3.79,3.79,0,0,0,2.13,1c1.76.2,3.54.3,5.32.35s3.55,0,5.33,0,3.55,0,5.33,0,3.56-.15,5.32-.35a3.79,3.79,0,0,0,2.13-1,4,4,0,0,0,1.2-2.05,20.05,20.05,0,0,0,.44-3.38c.06-1.13.06-2.28.06-3.39h0v-.06h0A30.38,30.38,0,0,0,29.74,9a4,4,0,0,0-1.2-2.05Z"/><path d="M21.25,15.2l-4.93-2.57L12.24,10.5l-.45-.24V20.65l.45-.23,4.51-2.33,4.51-2.34.52-.27Z" fill="#2d2d44"/></symbol><symbol id="skype" viewBox="0 0 32 32"><path d="M27.35 17.673c.1-.5.1-1 .1-1.5 0-6.1-4.9-11-11-11-.6 0-1.2 0-1.8.1-1-.7-2.3-1.1-3.6-1.1-3.6 0-6.6 3-6.6 6.6 0 1.3.4 2.6 1.1 3.6-.1.6-.1 1.1-.1 1.7 0 6.1 4.9 11 11 11 .7 0 1.4-.1 2-.2 1 .6 2.2 1 3.5 1 3.6 0 6.6-3 6.6-6.6 0-1.3-.4-2.6-1.2-3.6zm-9.8 6.6c-3.5.2-5.1-.6-6.6-2-1.7-1.6-1-3.4.4-3.5 1.4-.1 2.2 1.6 2.9 2 .7.5 3.5 1.5 4.9-.2 1.6-1.8-1.1-2.8-3-3.1-2.8-.4-6.3-1.9-6-4.9.3-3 2.5-4.5 4.9-4.7 3-.3 4.9.5 6.5 1.8 1.8 1.5.8 3.2-.3 3.4-1.1.1-2.4-2.5-4.9-2.6-2.6 0-4.3 2.7-1.1 3.5 3.2.8 6.6 1.1 7.8 4 1.1 3-2 6.1-5.5 6.3z"/></symbol><symbol id="slack" viewBox="0 0 32 32"><path d="M 30.179 20.29 L 26.949 21.367 L 28.066 24.707 C 28.504 26.06 27.788 27.532 26.432 27.969 C 24.904 28.4 23.579 27.542 23.161 26.34 L 22.045 22.996 L 15.387 25.224 L 16.503 28.566 C 17.022 30.164 15.926 31.943 14.071 31.943 C 12.903 31.943 11.944 31.194 11.601 30.197 L 10.482 26.856 L 7.254 27.93 C 5.746 28.366 4.405 27.509 3.982 26.298 C 3.546 24.946 4.262 23.473 5.618 23.036 L 8.848 21.961 L 6.694 15.556 L 3.465 16.629 C 1.665 17.139 0.067 15.846 0.067 14.186 C 0.067 13.102 0.743 12.085 1.83 11.735 L 5.061 10.66 L 3.943 7.32 C 3.504 5.965 4.223 4.493 5.579 4.055 C 6.934 3.618 8.408 4.333 8.848 5.687 L 9.966 9.028 L 16.621 6.801 L 15.507 3.458 C 14.971 1.813 16.15 0.067 17.955 0.067 C 19.042 0.067 20.059 0.743 20.412 1.829 L 21.529 5.171 L 24.758 4.096 C 26.112 3.657 27.588 4.375 28.026 5.728 C 28.467 7.08 27.747 8.552 26.392 8.989 L 23.161 10.064 L 25.315 16.469 L 28.547 15.395 C 30.196 14.862 31.943 16.038 31.943 17.837 C 31.943 18.924 31.265 19.939 30.179 20.29 M 18.236 11.752 L 11.582 13.977 L 13.732 20.389 L 20.388 18.166 L 18.236 11.752 Z"/></symbol><symbol id="github" viewBox="0 0 32 32"><path d="M16 3.987c-6.904 0-12.5 5.596-12.5 12.5 0 5.523 3.58 10.208 8.548 11.86.626.116.854-.27.854-.602 0-.296-.01-1.083-.017-2.125-3.477.755-4.21-1.676-4.21-1.676-.57-1.444-1.39-1.828-1.39-1.828-1.134-.776.087-.76.087-.76 1.255.088 1.915 1.288 1.915 1.288 1.115 1.91 2.926 1.358 3.638 1.04.113-.81.436-1.36.793-1.673-2.775-.313-5.694-1.386-5.694-6.176 0-1.364.488-2.48 1.287-3.354-.127-.317-.556-1.588.124-3.31 0 0 1.05-.335 3.438 1.283a11.964 11.964 0 0 1 3.13-.42c1.062.004 2.13.143 3.13.42 2.386-1.618 3.434-1.282 3.434-1.282.682 1.723.253 2.994.124 3.31.8.874 1.285 1.99 1.285 3.354 0 4.803-2.923 5.86-5.707 6.168.45.387.848 1.15.848 2.317 0 1.67-.015 3.017-.015 3.427 0 .335.225.724.86.602 4.963-1.658 8.54-6.34 8.54-11.86 0-6.905-5.596-12.5-12.5-12.5"/></symbol><symbol id="google" viewBox="0 0 512 512"><path fill="#ffffff" d="M457.732 216.625c2.628 14.041 4.063 28.743 4.063 44.098C461.796 380.688 381.481 466 260.204 466c-116.023 0-210-93.977-210-210s93.977-210 210-210c56.704 0 104.077 20.867 140.44 54.73l-59.204 59.197v-.135c-22.046-21.002-50-31.762-81.236-31.762-69.297 0-125.604 58.537-125.604 127.841 0 69.29 56.306 127.968 125.604 127.968 62.87 0 105.653-35.965 114.46-85.312h-114.46v-81.902h197.528z"/></symbol><symbol id="telegram" viewBox="0 0 32 32"><path d="M 24.964 30.003 C 24.727 30.003 24.492 29.934 24.291 29.798 L 16.664 24.624 L 12.574 27.567 C 11.89 28.058 10.926 27.713 10.711 26.898 L 8.658 19.117 L 1.319 16.309 C 0.456 15.979 0.275 14.837 0.992 14.256 C 1.086 14.179 1.192 14.117 1.304 14.074 L 29.207 2.969 C 30.058 2.609 30.981 3.305 30.869 4.223 C 30.864 4.253 30.859 4.285 30.853 4.316 L 26.144 29.028 C 26.035 29.594 25.541 30.003 24.964 30.003 Z M 17.333 22.176 L 24.128 26.785 L 27.791 7.555 L 14.555 20.291 L 17.301 22.155 C 17.313 22.162 17.323 22.169 17.333 22.176 Z M 11.678 21.152 L 12.589 24.598 L 14.548 23.188 L 11.981 21.447 C 11.864 21.368 11.761 21.267 11.678 21.152 Z M 5.052 15.165 L 10.09 17.093 C 10.451 17.231 10.723 17.534 10.822 17.908 L 11.461 20.33 C 11.491 20.048 11.62 19.786 11.823 19.589 L 24.435 7.453 L 5.052 15.165 Z"/></symbol><symbol id="odnoklassniki" viewBox="0 0 9 16"><g id="Page-1" stroke="none" stroke-width="1" fill="none" fill-rule="evenodd"><g id="post" transform="translate(-1376.000000, -5726.000000)" fill="#FFFFFF" fill-rule="nonzero"><path d="M1380.44418,5734.16234 C1378.21377,5734.16234 1376.40566,5732.33513 1376.40566,5730.08117 C1376.40566,5727.8272 1378.21377,5726 1380.44418,5726 C1382.67459,5726 1384.48269,5727.8272 1384.48269,5730.08117 C1384.48269,5732.33513 1382.67459,5734.16234 1380.44418,5734.16234 Z M1380.44418,5728.4487 C1379.55243,5728.44971 1378.82977,5729.18 1378.82877,5730.08117 C1378.82877,5730.98275 1379.55201,5731.71364 1380.44418,5731.71364 C1381.33634,5731.71364 1382.05958,5730.98275 1382.05958,5730.08117 C1382.05958,5729.17958 1381.33634,5728.4487 1380.44418,5728.4487 Z M1381.9213,5737.46727 L1384.47481,5740.04776 C1384.76134,5740.33633 1384.87352,5740.7576 1384.76897,5741.15252 C1384.66443,5741.54744 1384.3591,5741.85585 1383.96825,5741.9613 C1383.57741,5742.06675 1383.1606,5741.95319 1382.87518,5741.66348 L1380.44418,5739.20681 L1378.01319,5741.66347 C1377.72777,5741.95318 1377.31095,5742.06674 1376.92011,5741.96129 C1376.52927,5741.85584 1376.22393,5741.54744 1376.11939,5741.15252 C1376.01485,5740.7576 1376.12702,5740.33632 1376.41356,5740.04775 L1378.96666,5737.46766 C1378.11203,5737.30266 1377.29205,5736.98966 1376.54291,5736.54247 C1376.01181,5736.2156 1375.84142,5735.51676 1376.16147,5734.97796 C1376.48151,5734.43916 1377.17194,5734.26249 1377.70715,5734.58245 C1379.42887,5735.599 1381.56369,5735.57894 1383.26641,5734.53021 C1383.60899,5734.31205 1384.04085,5734.29566 1384.39865,5734.48724 C1384.75646,5734.67882 1384.98557,5735.04912 1384.99934,5735.45809 C1385.01311,5735.86705 1384.80943,5736.25224 1384.46534,5736.46795 C1383.68452,5736.95462 1382.82239,5737.29327 1381.9213,5737.46727 Z" id="Combined-Shape"/></g></g></symbol><symbol id="course" viewBox="0 0 16 16"><path d="M9 3v3H6v3H3v3h9V3z"/></symbol><symbol id="intensive" viewBox="0 0 16 16"><path d="M11.7 0h-4l-3 7h3l-2 7 7-9h-4z"/></symbol><symbol id="my-intensive" viewBox="0 0 16 16"><path d="M5.48 6.962c.448 0 .864-.147 1.218-.39l1.036-2.528c-.18-1.188-1.117-2.097-2.255-2.097-1.267 0-2.294 1.122-2.294 2.507S4.213 6.962 5.48 6.962zM.508 11.52zM9.51 8.74l-.194-.22H5.98l.36-1H3.603c-1.72 0-3.093 2.118-3.093 4h7.973L9.51 8.74z"/><path d="M11.006 7.52l-2.508 6.843 6.994-9.357-3.657-.11 2.867-4.88-4.275.347L7.492 7.52z"/></symbol><symbol id="user" viewBox="0 0 16 16"><circle cx="8" cy="7.7" r="2.3" transform="translate(0 -3)"/><path d="M13 12v-1c0-1.7-1.3-3-3-3H6c-1.7 0-3 1.3-3 3v1h10z"/></symbol><symbol id="login" viewBox="0 0 16 16"><path d="M11 1c-.7 0-1.7 1.2-2 3h1c.2-1.3.6-2 1-2 .7 0 2 2.2 2 5s-1.3 5-2 5c-.4 0-.8-.7-1-2H9c.3 1.8 1.3 3 2 3 1.1 0 3-2.7 3-6s-1.9-6-3-6z"/><path d="M2 6h4V4l4 3-4 3V8H2z"/></symbol><symbol id="logout" viewBox="0 0 16 16"><path d="M5 13c.7 0 1.7-1.2 2-3H6c-.2 1.3-.6 2-1 2-.7 0-2-2.2-2-5s1.3-5 2-5c.4 0 .8.7 1 2h1c-.3-1.8-1.3-3-2-3-1.1 0-3 2.7-3 6s1.9 6 3 6z"/><path d="M6 6h4V4l4 3-4 3V8H6z"/></symbol><symbol id="program" viewBox="0 0 13 10"><path d="M0 0h2v2H0zm0 4h2v2H0zm4 1h7v1H4zm0 4h7v1H4zm0-8h9v1H4zM0 8h2v2H0z"/></symbol><symbol id="all-courses" viewBox="0 0 13 10"><path d="M1.5 0h1.9v1.9H1.5zM5.5 0h1.9v1.9H5.5zM1.5 4h1.9v1.9H1.5zM5.5 4h1.9v1.9H5.5zM9.5 4h1.9v1.9H9.5zM1.5 8h1.9v1.9H1.5zM5.5 8h1.9v1.9H5.5zM9.5 8h1.9v1.9H9.5z"/></symbol><symbol id="mail" viewBox="0 0 32 32"><path d="M28 24.2V12.4c0 .4-.6.7-.9 1-2.7 2.1-4.8 3.8-6.5 5.2-.5.4-.9.8-1.2 1-.3.3-.8.6-1.3.9-.5.3-1.1.5-1.5.5h-.1c-.5 0-1-.2-1.6-.5-.6-.2-1-.5-1.3-.8-.3-.3-.7-.6-1.3-1.1-1.6-1.4-3.6-3.1-6.4-5.2-.4-.3-.9-.7-.9-1v11.8c0 .1-.1.4 0 .5.1.1.1.3.2.3h22.6c.1 0 .1-.2.2-.3.1-.1 0-.4 0-.5zm0-16.1v-.4s.1-.1.1-.2v-.2l-.1-.1-.1-.1s-.1-.1-.2-.1H5.1c-.1 0-.2.1-.3.2-.1.1-.1.2-.2.3 0 1.7.8 3.2 2.3 4.4 2 1.6 4 3.2 6.2 4.9.1 0 .3.2.5.4s.5.4.7.6c.2.1.4.3.7.5.3.2.5.4.8.5.3.1.4.2.7.2h.1c.2 0 .4-.1.7-.2.3-.1.5-.3.8-.5.3-.2.5-.4.7-.5.2-.1.4-.4.7-.6.3-.2.5-.4.5-.4 2.1-1.7 4.2-3.3 6.2-4.9.5-.4.9-1 1.4-1.8.5-.8.4-1.4.4-2zm2-.6v16.7c0 .7-.1 1.4-.6 1.9s-.9.9-1.6.9H5.2c-.7 0-1.1-.4-1.6-.9S3 24.9 3 24.2V7.5c0-.7.1-1.3.6-1.8S4.5 5 5.2 5h22.6c.7 0 1.1.3 1.6.7.5.4.6 1.1.6 1.8z"/></symbol><symbol id="eye-crossed" viewBox="0 0 24 20"><path fill="none" stroke="#B3B3B3" stroke-width="1.2" stroke-miterlimit="10" d="M22.17 9.92s-4.48 6-10 6-10-6-10-6 4.48-6 10-6 10 6 10 6z"/><circle fill="none" stroke="#B3B3B3" stroke-width="1.2" stroke-miterlimit="10" cx="12.17" cy="9.92" r="2.58"/><path class="icon-cross-bar" fill="none" stroke="#B3B3B3" stroke-width="1.2" stroke-miterlimit="10" d="M20.67 1.42l-17 17"/></symbol><symbol id="pencil" viewBox="0 0 14 16"><path fill-rule="evenodd" d="M0 12v3h3l8-8-3-3-8 8zm3 2H1v-2h1v1h1v1zm10.3-9.3L12 6 9 3l1.3-1.3a.996.996 0 0 1 1.41 0l1.59 1.59c.39.39.39 1.02 0 1.41z"/></symbol><symbol id="trashcan" viewBox="0 0 12 16"><path fill-rule="evenodd" d="M11 2H9c0-.55-.45-1-1-1H5c-.55 0-1 .45-1 1H2c-.55 0-1 .45-1 1v1c0 .55.45 1 1 1v9c0 .55.45 1 1 1h7c.55 0 1-.45 1-1V5c.55 0 1-.45 1-1V3c0-.55-.45-1-1-1zm-1 12H3V5h1v8h1V5h1v8h1V5h1v8h1V5h1v9zm1-10H2V3h9v1z"/></symbol><symbol id="knuckle" viewBox="0 0 54 44"><path fill-rule="evenodd" d="M51.334 23.706c-.674 1.292-1.854 1.92-3.61 1.92h-5.206v2.137h5.207l.065-.002c-.322 1.17-1.257 2.806-3.97 2.806h-3.256v2.136h2.29a19.486 19.486 0 0 1-2.004 2.523c-.477.175-1.05.28-1.737.28H32.12l-.076.004c-.019.002-1.998.12-3.148-.956a2.55 2.55 0 0 1-.712-1.2h3.71a4.918 4.918 0 0 0 3.916-1.958l2.53-4.19a4.675 4.675 0 0 0 .581-4.434h12.774a4.65 4.65 0 0 1-.36.934zM15.737 37.643h6.111c.057.004.158.008.295.008.82 0 2.922-.146 4.408-1.525.164-.152.31-.318.45-.488.137.17.284.336.45.488 1.484 1.38 3.586 1.525 4.406 1.525.137 0 .238-.004.295-.008h5.938c-3.201 2.3-7.077 3.58-11.193 3.58a19.203 19.203 0 0 1-11.16-3.58zM6.21 27.761l.064.002h5.207v-2.137H6.275c-2.751 0-3.675-1.682-3.984-2.854h13.33v3.082c0 4.135 3.365 7.5 7.501 7.5h2.695a2.557 2.557 0 0 1-.713 1.2c-1.15 1.076-3.128.958-3.144.956l-7.073-.003c-.846 0-1.519-.16-2.054-.414a19.229 19.229 0 0 1-1.894-2.39h2.497v-2.136H10.18c-2.714 0-3.649-1.636-3.97-2.806zm26.22-10.147v-5.706c0-.76.618-1.378 1.378-1.378a1.38 1.38 0 0 1 1.377 1.378v5.706c0 .198-.044.389-.123.564l-.065-.002h-2.441a1.357 1.357 0 0 1-.126-.562zm-4.89 0v-5.706c0-.76.617-1.378 1.376-1.378.76 0 1.378.618 1.378 1.378v5.706c0 .195-.048.387-.128.563a3.486 3.486 0 0 0-1.955.612 1.383 1.383 0 0 1-.672-1.175zm-4.891 0v-5.706c0-.76.617-1.378 1.377-1.378a1.38 1.38 0 0 1 1.377 1.378v5.706c0 .759-.618 1.377-1.377 1.377-.76 0-1.377-.618-1.377-1.377zm-4.892 0v-5.706a1.378 1.378 0 0 1 2.755 0v5.706c0 .759-.618 1.377-1.377 1.377a1.38 1.38 0 0 1-1.378-1.377zm1.378 3.513a3.5 3.5 0 0 0 2.445-.995 3.498 3.498 0 0 0 4.892-.002c.132.128.273.245.423.352a3.485 3.485 0 0 0-.219 1.208 3.518 3.518 0 0 0 3.514 3.513h3.618a1.069 1.069 0 0 0 0-2.136H30.19a1.38 1.38 0 0 1-1.377-1.378c0-.76.618-1.377 1.377-1.377h4.807c.335 0 .637.2.769.507l1.132 2.641c.354.828.24 1.79-.302 2.512l-2.525 4.182a2.773 2.773 0 0 1-2.177 1.064h-8.772a5.37 5.37 0 0 1-5.365-5.364v-5.009c.424.181.89.282 1.378.282zm7.762-18.346c10.138 0 18.463 7.893 19.166 17.855h-8.051l-.283-.658a2.957 2.957 0 0 0-.692-.99 3.5 3.5 0 0 0 .284-1.374v-5.706a3.517 3.517 0 0 0-3.513-3.514c-.95 0-1.813.38-2.446.996a3.501 3.501 0 0 0-4.891 0 3.498 3.498 0 0 0-4.89 0 3.5 3.5 0 0 0-2.446-.996 3.517 3.517 0 0 0-3.513 3.514v8.728H7.73c.703-9.962 9.028-17.855 19.167-17.855zM48.45 20.636C47.744 9.36 38.35.4 26.897.4 15.444.4 6.049 9.36 5.342 20.636H0v1.069c0 .051.056 4.465 3.982 5.724.21 1.347 1.008 4.04 3.97 4.955a21.72 21.72 0 0 0 1.624 2.524c.263.444.598.877 1.024 1.266a21.59 21.59 0 0 0 16.297 7.43c6.158 0 11.843-2.542 15.886-6.955 1.1-.734 1.738-1.76 2.104-2.7.182-.274.365-.547.536-.83l.11-.184.082-.437c3.318-.776 4.183-3.659 4.403-5.07C53.944 26.17 54 21.757 54 21.706v-1.069h-5.549z"/></symbol><symbol id="hat" viewBox="0 0 24 24"><g fill="none" fill-rule="evenodd" transform="matrix(1.4094 0 0 1.4094 1.632 1.299)"><path stroke="#ffffff" stroke-width="1.5" d="M4.75 7.617v2.766l2.765 1.73 2.735-1.732V7.62l-5.5-.004v.001z"/><path fill="#ffffff" d="M2 10h1V5H2z"/><path stroke="#ffffff" stroke-width="1.5" d="M7.544.87l-6.08 3.552 6.08 3.699 6.005-3.699L7.544.87z"/></g></symbol><symbol id="icon-check-bold" viewBox="0 0 13 9"><path fill="none" stroke="#ffffff" stroke-width="2" d="M1 2.746l4.5 4.5 6.125-6.125"/></symbol><symbol id="help" viewBox="0 0 18 18"><g fill="none" fill-rule="evenodd" transform="matrix(.91834 0 0 .91834 1 1.05)"><circle cx="8" cy="8" r="8" stroke="currentColor"/><text fill="currentColor" font-family="MullerBold, Muller" font-size="12" font-weight="bold" white-space="pre"><tspan x="5" y="13">?</tspan></text></g></symbol><symbol id="settings" viewBox="0 0 15 13"><g fill="#ffffff" fill-rule="evenodd"><path d="M3.539 0l-3.54 6.13 3.54 6.129h7.077l3.538-6.13L10.616 0H3.539zM1.155 6.13L4.115 1h5.924l2.96 5.13-2.96 5.129H4.116l-2.961-5.13z"/><path d="M7.077 8.228A2.1 2.1 0 0 1 4.98 6.13a2.1 2.1 0 0 1 2.098-2.098A2.1 2.1 0 0 1 9.175 6.13a2.1 2.1 0 0 1-2.098 2.098m0-5.196A3.101 3.101 0 0 0 3.98 6.13a3.102 3.102 0 0 0 3.098 3.098 3.102 3.102 0 0 0 3.098-3.098 3.101 3.101 0 0 0-3.098-3.098"/></g></symbol><symbol id="career" viewBox="0 0 16 16"><path fill-rule="evenodd" clip-rule="evenodd" d="M10.854 2.468H14V13H1V2.468h3.146c.044-.183.105-.363.185-.538.172-.38.425-.724.743-1.014A3.47 3.47 0 0 1 6.187.238a3.722 3.722 0 0 1 2.626 0 3.47 3.47 0 0 1 1.113.678c.318.29.571.635.743 1.014.08.175.141.355.185.538zm-1.12 0a2.138 2.138 0 0 0-.574-.854 2.374 2.374 0 0 0-.762-.464 2.547 2.547 0 0 0-1.796 0 2.374 2.374 0 0 0-.762.464 2.138 2.138 0 0 0-.573.854h4.466zm3.183.988H2.083v3.62h3.25V5.1h4.334v1.975h3.25v-3.62zM8.583 9.38H6.417V6.089h2.166v3.29zm4.334-1.317h-3.25v2.304H5.333V8.063h-3.25v3.95h10.834v-3.95z" fill="#fff"/></symbol><symbol id="company" viewBox="0 0 16 16"><path fill-rule="evenodd" clip-rule="evenodd" d="M5.333 2h7.584v10H5.333V2zM4.25 1H14v12H1V6h3.25V1zm0 6H2.083v5H4.25V7zm2.167-4h2.166v1H6.417V3zm5.416 0H9.667v1h2.166V3zM6.417 6h2.166v1H6.417V6zm5.416 0H9.667v1h2.166V6zM6.417 9h2.166v1H6.417V9zm5.416 0H9.667v1h2.166V9z" fill="#fff"/></symbol><symbol id="chapter_arrow" viewBox="0 0 16 15"><g stroke="currentColor" fill="none" fill-rule="evenodd"><path d="M8.912 2.62l5.088 5-5.089 5m5.089-5H0" bx:origin="0.607 0.5" stroke-width="2"/></g></symbol><symbol id="chapter_knuckle" viewBox="0 0 17 16"><g fill="none" fill-rule="evenodd"><g transform="translate(-433 -560)" fill="currentColor"><g transform="translate(341 92)"><g transform="translate(79 377)"><g transform="translate(6 84)"><path d="M21.401 17.887l-1.626 2.59a1.81 1.81 0 0 1-1.401.659h-5.646c-1.905 0-3.453-1.49-3.453-3.323v-3.101a2.324 2.324 0 0 0 2.46-.442c.408.38.962.616 1.574.616a2.3 2.3 0 0 0 1.575-.617c.085.079.176.151.272.218-.09.233-.14.484-.14.748 0 1.2 1.014 2.176 2.261 2.176h2.329c.38 0 .688-.297.688-.662a.675.675 0 0 0-.688-.662h-2.329c-.489 0-.886-.383-.886-.853s.397-.853.886-.853h3.095a.54.54 0 0 1 .494.314l.73 1.636c.227.513.153 1.11-.195 1.556zM9.275 9.177c0-.472.397-.854.886-.854s.887.382.887.853v3.534c0 .47-.398.853-.887.853s-.886-.383-.886-.853V9.176zm3.148 0c0-.472.398-.854.886-.854.489 0 .887.382.887.853v3.534c0 .47-.398.853-.887.853-.488 0-.886-.383-.886-.853V9.176zm3.148 0c0-.472.398-.854.886-.854.49 0 .887.382.887.853v3.534c0 .121-.03.24-.082.349-.466.003-.9.142-1.259.38a.85.85 0 0 1-.432-.73V9.177zm3.148 0c0-.472.398-.854.887-.854s.886.382.886.853v3.534a.813.813 0 0 1-.079.35l-.041-.002H18.8a.808.808 0 0 1-.082-.348V9.176zm4.179 6.728l-.586-1.323-.182-.408a1.833 1.833 0 0 0-.445-.613c.118-.267.183-.557.183-.851V9.176c0-1.2-1.015-2.176-2.262-2.176-.612 0-1.167.236-1.574.617A2.3 2.3 0 0 0 16.457 7a2.3 2.3 0 0 0-1.574.617A2.298 2.298 0 0 0 13.31 7c-.612 0-1.166.236-1.574.617A2.3 2.3 0 0 0 10.161 7C8.914 7 7.9 7.976 7.9 9.176V17.813c0 2.562 2.166 4.646 4.829 4.646h5.646a3.21 3.21 0 0 0 2.52-1.213l1.63-2.594a2.805 2.805 0 0 0 .374-2.747z" id="Fill-1"/></g></g></g></g></g></symbol><symbol id="chapter_lock" viewBox="0 0 12 14"><g fill="currentColor" fill-rule="nonzero"><path d="M1.5 7.5v5h9v-5h-9zM0 6h12v8H0V6z"/><path d="M3.5 6h5V3.5C8.5 2.672 7.828 2 7 2H5c-.828 0-1.5.672-1.5 1.5V6zM5 .5h2c1.657 0 3 1.343 3 3v4H2v-4c0-1.657 1.343-3 3-3z"/></g></symbol><symbol id="chapter_shield" viewBox="0 0 46 46"><path clip-rule="evenodd" fill="none" stroke="currentColor" stroke-miterlimit="10" d="M8.34 7.63l14.43-1.3 14.61 1.3v25.99l-14.6 8.12-14.44-8.13V7.63z" stroke-width="6"/></symbol><symbol id="chapter_synopsis" viewBox="0 0 40 35"><g fill="none" fill-rule="evenodd" transform="translate(-1.391 -6.609)"><path d="M-868-87H498v2151H-868z"/><g transform="matrix(1.44345 0 0 1.44345 -8.916 -3.99)"><g fill="currentColor"><path d="M12 8.307v21.95h17.394v-8.354l5.584-4.07-1.923-2.565-3.661 2.67V8.306H12zm2.15 2.129h13.094v9.069l-3.125 2.277-.691 2.426 2.614.138 1.202-.876v4.66H14.15V10.436z"/></g></g></g></symbol><symbol id="locked" viewBox="0 0 16 21"><path d="M8 16c1.1 0 2-.9 2-2s-.9-2-2-2-2 .9-2 2 .9 2 2 2zm6-9h-1V5c0-2.76-2.24-5-5-5S3 2.24 3 5v2H2C.9 7 0 7.9 0 9v10c0 1.1.9 2 2 2h12c1.1 0 2-.9 2-2V9c0-1.1-.9-2-2-2zM4.9 5c0-1.71 1.39-3.1 3.1-3.1 1.71 0 3.1 1.39 3.1 3.1v2H4.9V5zM14 19H2V9h12v10z"/></symbol><symbol id="unlocked" viewBox="0 0 16 21"><path d="M8 16c1.1 0 2-.9 2-2s-.9-2-2-2-2 .9-2 2 .9 2 2 2zm6-9h-1V5c0-2.76-2.24-5-5-5S3 2.24 3 5h1.9c0-1.71 1.39-3.1 3.1-3.1 1.71 0 3.1 1.39 3.1 3.1v2H2C.9 7 0 7.9 0 9v10c0 1.1.9 2 2 2h12c1.1 0 2-.9 2-2V9c0-1.1-.9-2-2-2zm0 12H2V9h12v10z"/></symbol><symbol id="sandglass-large" viewBox="0 0 16 19"><path fill-rule="evenodd" clip-rule="evenodd" d="M1.12287 1.57664C0.652503 0.916037 1.13613 0 1.94707 0H14.0529C14.8639 0 15.3475 0.916037 14.8771 1.57664L9.23484 9.50092L14.8771 17.4233C15.3475 18.0839 14.8639 19 14.0529 19H1.94707C1.13607 19 0.652465 18.0839 1.12293 17.4233L6.76516 9.50092L1.12287 1.57664ZM4.60634 16H11.3937L8.0001 11.235L4.60634 16ZM3.89389 2L6.74883 6.00961L9.25641 6.00224L12.1061 2H3.89389Z"/></symbol></svg>